<?xml version="1.0" encoding="UTF-8"?>
<svg xmlns="http://www.w3.org/2000/svg" xmlns:xlink="http://www.w3.org/1999/xlink" viewBox="0 0 175.63 325.75">
  <defs>
    <style>
      .cls-1, .cls-2, .cls-3 {
        fill: #fdd301;
      }

      .cls-4 {
        opacity: .52;
      }

      .cls-4, .cls-5, .cls-6, .cls-7, .cls-8, .cls-9 {
        fill: #f5f5f7;
      }

      .cls-10, .cls-5, .cls-6, .cls-11, .cls-12, .cls-13, .cls-14, .cls-15, .cls-3 {
        mix-blend-mode: screen;
      }

      .cls-10, .cls-16 {
        fill: #9fa6ab;
      }

      .cls-17 {
        fill: url(#linear-gradient-2);
      }

      .cls-18, .cls-19 {
        fill: #fced8a;
      }

      .cls-5, .cls-12 {
        opacity: .31;
      }

      .cls-20 {
        fill: url(#linear-gradient-4);
      }

      .cls-20, .cls-21, .cls-22 {
        mix-blend-mode: color-dodge;
      }

      .cls-20, .cls-22 {
        opacity: .58;
      }

      .cls-23, .cls-7 {
        opacity: .51;
      }

      .cls-6 {
        opacity: .72;
      }

      .cls-24 {
        fill: #c5cdd2;
      }

      .cls-25 {
        opacity: .57;
      }

      .cls-26 {
        fill: #506e31;
      }

      .cls-27, .cls-21, .cls-14 {
        fill: #fff;
      }

      .cls-28, .cls-29, .cls-19, .cls-30, .cls-2, .cls-31 {
        mix-blend-mode: multiply;
      }

      .cls-28, .cls-32 {
        fill: #58372e;
      }

      .cls-21 {
        opacity: .62;
      }

      .cls-29 {
        fill: #a31516;
      }

      .cls-33 {
        fill: #344f1d;
      }

      .cls-34 {
        isolation: isolate;
      }

      .cls-35 {
        fill: #f5d962;
      }

      .cls-36 {
        fill: #e02002;
      }

      .cls-37 {
        fill: #f3ba04;
      }

      .cls-38, .cls-13 {
        fill: #698a41;
      }

      .cls-12 {
        fill: #f3bb9f;
      }

      .cls-30 {
        opacity: .44;
      }

      .cls-14 {
        opacity: .84;
      }

      .cls-9 {
        opacity: .86;
      }

      .cls-15 {
        fill: #e12127;
      }

      .cls-22 {
        fill: url(#linear-gradient-3);
      }

      .cls-31 {
        fill: #989a99;
        opacity: .37;
      }

      .cls-39 {
        fill: #590600;
      }

      .cls-40 {
        opacity: .48;
      }

      .cls-41 {
        fill: url(#linear-gradient);
      }

      .cls-42 {
        fill: #a3ce6d;
      }
    </style>
    <linearGradient id="linear-gradient" x1="91.11" y1="153.79" x2="91.11" y2="87.68" gradientUnits="userSpaceOnUse">
      <stop offset="0" stop-color="#e61e25"/>
      <stop offset="1" stop-color="#f47c20"/>
    </linearGradient>
    <linearGradient id="linear-gradient-2" x1="91.11" y1="146.08" x2="91.11" y2="82.6" gradientUnits="userSpaceOnUse">
      <stop offset="0" stop-color="#d32427"/>
      <stop offset="1" stop-color="#f89b1c"/>
    </linearGradient>
    <linearGradient id="linear-gradient-3" x1="24.44" y1="114.53" x2="134.83" y2="85.02" gradientUnits="userSpaceOnUse">
      <stop offset="0" stop-color="#fff"/>
      <stop offset="1" stop-color="#000"/>
    </linearGradient>
    <linearGradient id="linear-gradient-4" x1="164.33" y1="109.11" x2="85.28" y2="100.37" xlink:href="#linear-gradient-3"/>
  </defs>
  <g class="cls-34">
    <g id="Layer_1" data-name="Layer 1">
      <g>
        <g>
          <path class="cls-36" d="M34.86,41.29c.21,2.49,1,4.92,2.27,7.07,1.46,2.47,3.55,4.58,5.87,6.25,2.41,1.73,5.13,3.02,7.98,3.83,2.84.8,5.76,1.07,8.7.87,2.92-.2,5.85-.78,8.53-1.99,2.01-.91,3.86-2.17,5.41-3.74,1.62-1.98,2.97-4.2,3.84-6.46,1.03-2.67,1.34-5.39,1.01-7.91-.33-2.55-1.27-4.85-2.52-6.89-1.29-2.11-2.94-3.96-4.78-5.57-1.88-1.64-3.97-3.11-6.28-4.2-2.4-1.14-5.07-1.86-7.92-1.99-2.64-.13-5.45.27-8.19,1.29-2.26.84-4.43,2.1-6.39,3.69-.29.24-.57.49-.85.74-2.71,2.48-4.93,5.57-6.11,8.87-.55,2-.77,4.08-.59,6.14Z"/>
          <path class="cls-15" d="M55.35,22.82s0-.09,0-.12c-.4-.37-1.03-.48-1.54-.52-.64-.05-1.28.01-1.9.14-1.4.28-2.74.84-4,1.51-1.09.58-2.11,1.25-3.06,2.03-1,.82-2.14,1.66-2.75,2.84-.26.51-.37,1.15.11,1.57.46.42,1.21.41,1.79.38,1.18-.07,2.38-.38,3.53-.65,1.33-.32,2.65-.71,3.9-1.26,1.2-.53,2.39-1.22,3.22-2.26.84-1.05,1.04-2.36.7-3.65Z"/>
          <path class="cls-21" d="M52.48,23.5s0-.03,0-.05c-.15-.14-.38-.18-.57-.19-.23-.02-.47,0-.7.05-.52.1-1.01.31-1.48.56-.4.21-.78.46-1.13.75-.37.3-.79.61-1.02,1.05-.1.19-.14.42.04.58.17.15.45.15.66.14.44-.03.88-.14,1.3-.24.49-.12.98-.26,1.44-.47.44-.2.88-.45,1.19-.83.31-.39.38-.87.26-1.35Z"/>
          <path class="cls-21" d="M46.68,27.1s0-.03,0-.04c-.11-.11-.3-.14-.45-.15-.18-.01-.37,0-.55.04-.4.08-.79.24-1.15.44-.31.17-.61.36-.88.59-.29.24-.62.48-.79.82-.08.15-.11.33.03.45.13.12.35.12.52.11.34-.02.69-.11,1.02-.19.38-.09.77-.2,1.13-.36.35-.15.69-.35.93-.65.24-.3.3-.68.2-1.05Z"/>
          <path class="cls-29" d="M77.47,47.12c1.03-2.67,1.34-5.39,1.01-7.91-.33-2.55-1.27-4.85-2.52-6.89-1.29-2.11-2.94-3.96-4.78-5.57-1.88-1.64-3.97-3.11-6.28-4.2-.67-.32-1.37-.6-2.08-.85,1.83,1.17,3.46,2.61,4.91,4.23.18.2-.09.48-.29.3-.52-.46-1.1-.84-1.71-1.17-1.42-.75-3.03-1.25-4.64-1.27-1.45-.02-2.96.41-3.82,1.66-1.56,2.26.39,5.03,1.99,6.65.88.89,1.86,1.67,2.98,2.24,1.4.72,2.91,1.22,4.25,2.07,1.23.78,2.23,1.91,2.22,3.45-.01,1.54-.82,3.04-1.86,4.13-1.08,1.14-2.47,1.96-3.91,2.56-1.58.66-3.25,1.08-4.94,1.34-3.28.51-6.59.43-9.81-.41-2.03-.53-4.02-1.33-5.72-2.57-1.69-1.24-2.96-2.85-3.75-4.79-1.11-2.73-1.1-5.81-.32-8.63.31-1.12.74-2.22,1.27-3.26-1.83,2.07-3.3,4.44-4.19,6.92-.55,2-.77,4.08-.59,6.14.21,2.49,1,4.92,2.27,7.07,1.46,2.47,3.55,4.58,5.87,6.25,2.41,1.73,5.13,3.02,7.98,3.83,2.84.8,5.76,1.07,8.7.87,2.92-.2,5.85-.78,8.53-1.99,2.01-.91,3.86-2.17,5.41-3.74,1.62-1.98,2.97-4.2,3.84-6.46Z"/>
          <path class="cls-39" d="M71.06,32.29s-.03,0-.05,0c-.36.11-.73.19-1.09.24,0,0-.01,0-.02,0-.4-.06-.8-.18-1.14-.4-.37-.24-.7-.54-1.06-.79-.24-.17-.49-.32-.75-.46-.66-.54-1.43-.94-2.27-1.17-1.07-.3-2.17-.39-3.27-.56-.89-.14-1.59-.32-2.25-.94-.59-.56-1.22-1.48-.84-2.32.02-.03,0-.06-.03-.07.08-.2.19-.41.33-.61.74-1.03,2.38-1.5,3.56-1.05.12.05.23-.04.21-.12-1.62-.64-3.5-.31-4.85.73-.69.8-.93,1.89-.54,2.96.58,1.59,2.01,2.84,3.42,3.69,1.63.98,3.46,1.61,5.33,1.92,1.5.25,3.07.27,4.56-.06.3-.29.55-.63.74-.99Z"/>
          <path class="cls-29" d="M77.47,47.12c1.03-2.67,1.34-5.39,1.01-7.91-.33-2.55-1.27-4.85-2.52-6.89-.53-.86-1.11-1.67-1.75-2.45.11.47.17.95.17,1.43-.02,1.05-.41,2.13-1.16,2.89-.89.9-2.15,1.19-3.34,1.47.28.22.6.38.92.53.5.24,1.01.46,1.46.77.44.31.77.69,1.05,1.15.57.93.84,2.03.86,3.11.05,2.07-.65,4.11-1.68,5.89-1.03,1.78-2.41,3.38-4.03,4.66-1.71,1.36-3.64,2.42-5.66,3.23-2.05.82-4.21,1.4-6.41,1.61-2.33.23-4.73.08-7.05-.22-1.85-.25-3.69-.64-5.48-1.19,2.18,1.43,4.59,2.52,7.1,3.23,2.84.8,5.76,1.07,8.7.87,2.92-.2,5.85-.78,8.53-1.99,2.01-.91,3.86-2.17,5.41-3.74,1.62-1.98,2.97-4.2,3.84-6.46Z"/>
          <path class="cls-29" d="M65.31,33.08c1.36.4,2.98.75,4.25-.08,2.19-1.43-.28-4.17-1.53-5.3-.77-.69-1.65-1.22-2.58-1.66-1.15-.55-2.37-.98-3.63-1.23-1.15-.23-2.41-.33-3.54.05-.23.08-.44.18-.64.3.03,2.51,1.8,4.84,3.81,6.21,1.16.79,2.52,1.32,3.86,1.71Z"/>
          <path class="cls-32" d="M87.49,9.37c.17-.87-.08-1.78-.37-2.59-.18-.49-.37-.97-.71-1.38-.38-.46-1.06-.68-1.61-.38-.43.23-.54.71-.56,1.17-.04.05-.08.1-.11.15-.21.36-.31.84-.4,1.24-.1.42-.19.85-.29,1.27-.12.49-.34.91-.6,1.33-1.19,1.9-2.95,3.31-4.69,4.68-1.88,1.48-3.77,2.96-5.64,4.46-2.39,1.9-4.75,3.88-6.8,6.15-.87.96-1.66,1.98-2.48,2.97-.58.7-1.34,1.64-.9,2.59.39.83,1.44.6,2.05.18.87-.6,1.12-1.69,1.55-2.59.87-1.82,2.53-3.35,3.97-4.71,1.61-1.52,3.32-2.95,5.06-4.32,1.77-1.39,3.6-2.72,5.27-4.23,1.86-1.69,3.55-3.58,5.4-5.29.18.12.38.21.59.26.33.07.71-.02.95-.26.19-.19.28-.45.33-.71Z"/>
          <path class="cls-28" d="M87.49,9.37c.16-.85-.06-1.72-.35-2.52-.12.65-.32,1.28-.62,1.86-.08.15-.28.13-.36,0-.39-.61-.59-1.31-.76-2.02-.02.5-.07,1-.19,1.48-.24.97-.8,1.81-1.48,2.53-1.88,1.99-4.01,3.68-6.13,5.39-2.13,1.71-4.31,3.39-6.38,5.17-2.02,1.75-4,3.55-5.35,5.89-.61,1.05-1.05,2.17-1.52,3.28-.15.36-.31.7-.49,1.04.19-.07.36-.16.51-.26.87-.6,1.12-1.69,1.55-2.59.87-1.82,2.53-3.35,3.97-4.71,1.61-1.52,3.32-2.95,5.06-4.32,1.77-1.39,3.6-2.72,5.27-4.23,1.86-1.69,3.55-3.58,5.4-5.29.18.12.38.21.59.26.33.07.71-.02.95-.26.19-.19.28-.45.33-.71Z"/>
        </g>
        <g>
          <path class="cls-33" d="M37.06,45.96c-3.45.51-6.94,1.58-9.99,3.27-1.69.94-3.27,2.07-4.8,3.25-.3.23.2.86.5.68,1.46-.89,3-1.62,4.58-2.28,1.6-.67,3.21-1.27,4.85-1.8,3.21-1.03,6.58-1.59,9.94-1.72,1.87-.07,3.76-.06,5.62.11.73.07.39-.86-.1-.99-3.48-.93-7.04-1.05-10.6-.53Z"/>
          <g>
            <path class="cls-38" d="M19.54,27.77c.15.26.33.51.47.77.07.14.11.3.19.44.09.15.2.3.3.44.4.57.85,1.11,1.32,1.62.9.98,1.88,1.89,2.87,2.78,2.21,1.98,4.57,3.79,7,5.49,1.47,1.04,2.98,2.02,4.51,2.96-.71-.13-1.43-.26-2.14-.38-2.79-.46-5.55-.65-8.38-.5-5.44.29-10.91,1.36-15.82,3.8-1.17.58-2.24,1.29-3.21,2.16-.48.43-.9.93-1.32,1.42-.45.53-.83,1.1-1.26,1.64-.2.25.23.79.51.58.47-.36.97-.66,1.44-1.01.44-.33.9-.65,1.36-.96.94-.61,1.84-1.24,2.84-1.74,2.3-1.15,4.81-1.95,7.3-2.58,2.57-.65,5.2-1.04,7.84-1.28,2.62-.24,5.25-.23,7.86.1-2.58.18-5.11.65-7.59,1.38-5.04,1.49-10.11,3.82-13.65,7.81-.84.95-1.69,2.01-2.26,3.15-.3.59-.57,1.22-.7,1.87-.14.66-.11,1.3,0,1.96.06.31.59.57.63.12.04-.48.26-.94.48-1.36.25-.49.54-.95.87-1.39.66-.89,1.38-1.7,2.12-2.52,1.62-1.78,3.6-3.26,5.69-4.44,2.23-1.26,4.65-2.23,7.08-3.03.4-.13.8-.25,1.2-.37,1-.14,1.99-.31,2.99-.41,1.62-.16,3.26-.21,4.89-.24,3.22-.05,6.45.37,9.59,1.06.71.16,1.42.33,2.13.51.26.12.52.23.79.35,1.49.65,2.98,1.3,4.52,1.82.74.25,1.49.48,2.26.67.81.2,1.68.44,2.52.42.46-.01.7-.36.65-.8-.05-.48-.4-.94-.86-1.1-.67-.23-1.36-.37-2.04-.58-.68-.21-1.35-.44-2.01-.7-1.33-.52-2.63-1.11-3.93-1.69-1.3-.57-2.6-1.12-3.89-1.71-.15-.08-.31-.15-.47-.21-.45-.21-.83-.39-1.35-.64-.66-.32-1.32-.64-1.97-.98-5.17-2.65-9.91-5.97-14.59-9.38-1.13-.82-2.23-1.64-3.29-2.55-.54-.46-1.06-.95-1.56-1.45-.51-.51-1.02-.97-1.42-1.57-.21-.32-.72-.15-.51.24Z"/>
            <path class="cls-13" d="M25.9,47.07s.01,0,.02,0c-1.71.4-3.39.97-5.02,1.65-1.93.81-3.8,1.75-5.54,2.91-1.66,1.11-3.29,2.4-4.5,4.01-.96,1.27-1.62,2.82-1.31,4.4.06-.03.1-.1.11-.21.04-.48.26-.94.48-1.36.25-.49.54-.95.87-1.39.66-.89,1.38-1.7,2.12-2.52,1.62-1.78,3.6-3.26,5.69-4.44,2.23-1.26,4.65-2.23,7.08-3.03Z"/>
            <path class="cls-13" d="M32.34,39.75c1.43.56,2.88,1.06,4.35,1.53-1.44-.81-2.87-1.65-4.28-2.52-3.27-2.03-6.48-4.24-9.29-6.88-1.04-.98-2.04-2.02-3-3.08.02.06.05.12.09.18.09.15.2.3.3.44.4.57.85,1.11,1.32,1.62.9.98,1.88,1.89,2.87,2.78,2.21,1.98,4.57,3.79,7,5.49.21.15.42.29.64.44Z"/>
            <path class="cls-26" d="M26.48,15.67c-.47.71-.31,1.78-.22,2.57.12,1,.34,1.99.62,2.96.77,2.73,1.98,5.29,3.4,7.74,2.6,4.48,5.87,8.7,9.75,12.14,1.88,1.67,3.92,3.18,6.08,4.48,1.06.64,2.16,1.2,3.28,1.71.55.26,1.11.5,1.67.73.55.22,1.1.37,1.66.55.58.18,1.16.35,1.74.51.42.11.27-.47,0-.58-1.11-.5-2.16-1.09-3.25-1.65-1.06-.55-2.09-1.15-3.11-1.78-2.01-1.25-3.83-2.55-5.61-4.04-.82-.68-1.6-1.4-2.37-2.14-.54-.61-1.11-1.21-1.64-1.83-.91-1.05-1.77-2.1-2.55-3.24-1.6-2.34-2.94-4.81-3.92-7.47-.48-1.31-.88-2.64-1.27-3.97-.35-1.19-.72-2.37-1.03-3.57-.21-.8-.4-1.66-.79-2.39-.26-.49-.62-1-1.18-1.15-.5-.14-.97,0-1.27.43Z"/>
            <path class="cls-13" d="M45.58,44.84c-2.82-1.85-5.44-4.01-7.78-6.44-2.27-2.36-4.32-4.96-6.15-7.67-1.39-2.06-2.65-4.22-3.71-6.47.66,1.62,1.46,3.18,2.34,4.69,2.6,4.48,5.87,8.7,9.75,12.14,1.88,1.67,3.92,3.18,6.08,4.48,1.06.64,2.16,1.2,3.28,1.71.55.26,1.11.5,1.67.73.44.18.88.31,1.33.45-2.38-.97-4.66-2.21-6.8-3.62Z"/>
            <path class="cls-26" d="M19.11,13.16c-.52.98-.29,2.29-.11,3.33.41,2.39,1.42,4.64,2.43,6.82,1,2.16,2.14,4.27,3.45,6.26,1.29,1.96,2.69,3.87,4.29,5.6.79.85,1.63,1.63,2.54,2.36.52.41,1.06.78,1.61,1.13.62.52,1.25,1.01,1.93,1.45.84.55,1.76.96,2.61,1.5.43.27.83.59,1.21.95.19.18.31-.09.16-.25-1.16-1.22-2.6-2.13-3.94-3.15-.1-.11-.21-.22-.32-.32-.38-.35-.78-.67-1.18-1-.19-.15-.38-.31-.56-.48-1.31-1.32-2.46-2.82-3.55-4.32-1.36-1.88-2.7-3.76-3.76-5.83-1.09-2.11-2.12-4.31-2.96-6.53-.41-1.09-.77-2.2-1.03-3.34-.12-.53-.24-1.06-.25-1.52-.02-.55-.02-1.1-.19-1.63-.2-.6-.58-1.31-1.22-1.51-.47-.15-.92.03-1.15.47Z"/>
            <path class="cls-13" d="M39.29,42.52c-.13-.1-.25-.2-.38-.29-2.03-1.51-4.2-2.81-6.19-4.36-2.02-1.57-3.76-3.43-5.23-5.52-.74-1.04-1.41-2.12-2.07-3.21-.68-1.12-1.35-2.24-1.96-3.4-1.21-2.27-2.24-4.64-3.09-7.07-.57-1.62-1.05-3.27-1.47-4.94-.22.88-.04,1.91.11,2.76.41,2.39,1.42,4.64,2.43,6.82,1,2.16,2.14,4.27,3.45,6.26,1.29,1.96,2.69,3.87,4.29,5.6.79.85,1.63,1.63,2.54,2.36.52.41,1.06.78,1.61,1.13.62.52,1.25,1.01,1.93,1.45.84.55,1.76.96,2.61,1.5.43.27.83.59,1.21.95.11.11.2.06.22-.03Z"/>
            <path class="cls-26" d="M19.47,41.2c-2.16.35-4.31.82-6.4,1.46-2,.62-3.96,1.41-5.71,2.56-.94.62-1.79,1.4-2.45,2.31-.33.46-.58.95-.78,1.48-.1.24-.18.49-.25.74-.05.18-.01.32,0,.5.02.15-.01.29-.03.44-.02.16.26.43.38.23.05-.09.1-.2.19-.26.1-.07.19-.06.29-.17.14-.16.25-.37.38-.53.26-.33.57-.63.85-.91.65-.66,1.41-1.22,2.19-1.73,1.69-1.1,3.38-1.83,5.32-2.46,4.65-1.52,9.57-2.13,14.43-2.49,1.47-.11,2.96-.2,4.43-.17,1.45.03,2.87.14,4.31.34.41.06.24-.58,0-.7-1.24-.6-2.6-.89-3.96-1.09-1.37-.2-2.79-.22-4.17-.21-3.02.02-6.06.17-9.05.65Z"/>
            <path class="cls-26" d="M36.5,44.86c-1.27.03-2.5.31-3.76.44-.3.03-.02.51.18.53.77.08,1.53.22,2.3.31.74.09,1.49.16,2.23.23,1.44.14,2.87.32,4.29.59,1.42.27,2.83.58,4.25.86,1.41.27,2.83.6,4.26.72.53.04.32-.75,0-.9-2.13-1-4.49-1.55-6.79-2.03-1.19-.24-2.37-.5-3.58-.64-1.13-.13-2.25-.15-3.39-.12Z"/>
          </g>
          <g>
            <path class="cls-38" d="M37.14,36.93c.18.24.39.47.55.72.09.13.14.28.24.41.11.14.23.27.35.41.46.52.97,1,1.5,1.46,1.01.87,2.08,1.67,3.16,2.44,2.42,1.72,4.97,3.25,7.57,4.68,1.58.86,3.19,1.68,4.82,2.44-.72-.05-1.45-.1-2.17-.14-2.82-.15-5.59-.03-8.38.44-5.37.9-10.69,2.57-15.3,5.54-1.1.71-2.08,1.53-2.95,2.5-.43.48-.79,1.03-1.15,1.56-.39.58-.7,1.19-1.07,1.77-.17.27.32.76.57.52.43-.41.89-.76,1.32-1.17.4-.38.82-.75,1.24-1.1.86-.71,1.69-1.44,2.63-2.05,2.16-1.4,4.56-2.48,6.96-3.38,2.48-.93,5.06-1.61,7.65-2.15,2.58-.53,5.19-.82,7.82-.78-2.54.46-5.01,1.22-7.39,2.22-4.84,2.04-9.62,4.92-12.7,9.29-.73,1.04-1.46,2.19-1.9,3.39-.23.62-.43,1.28-.49,1.94-.06.67.03,1.31.23,1.95.09.3.65.5.64.05,0-.48.15-.97.32-1.41.19-.52.43-1.01.71-1.48.56-.96,1.18-1.85,1.83-2.74,1.41-1.95,3.21-3.64,5.16-5.05,2.07-1.5,4.38-2.74,6.7-3.8.38-.17.77-.34,1.15-.51.97-.25,1.94-.53,2.93-.74,1.6-.34,3.22-.57,4.84-.78,3.2-.41,6.45-.35,9.65-.02.73.07,1.45.17,2.17.26.27.09.55.17.82.26,1.55.48,3.11.96,4.69,1.3.77.17,1.54.31,2.32.42.83.11,1.71.25,2.55.13.45-.06.66-.44.56-.87-.11-.47-.5-.89-.98-.99-.69-.16-1.39-.22-2.09-.35-.7-.13-1.39-.29-2.07-.47-1.38-.36-2.73-.81-4.09-1.24-1.35-.42-2.71-.83-4.06-1.26-.16-.07-.32-.12-.49-.16-.47-.15-.86-.29-1.42-.48-.69-.24-1.38-.49-2.07-.75-5.43-2.05-10.51-4.82-15.55-7.69-1.22-.69-2.4-1.38-3.56-2.17-.59-.4-1.16-.82-1.72-1.27-.56-.45-1.12-.85-1.58-1.4-.25-.3-.74-.07-.48.29Z"/>
            <path class="cls-13" d="M45.62,55.41s.01,0,.02,0c-1.66.59-3.26,1.34-4.8,2.2-1.83,1.02-3.58,2.16-5.18,3.51-1.53,1.29-3,2.75-4.02,4.49-.81,1.37-1.29,2.99-.81,4.51.05-.04.08-.11.08-.22,0-.48.15-.97.32-1.41.19-.52.43-1.01.71-1.48.56-.96,1.18-1.85,1.83-2.74,1.41-1.95,3.21-3.64,5.16-5.05,2.07-1.5,4.38-2.74,6.7-3.8Z"/>
            <path class="cls-13" d="M51.19,47.41c1.48.4,2.98.73,4.49,1.03-1.53-.64-3.04-1.31-4.53-2.03-3.48-1.66-6.91-3.49-10-5.8-1.15-.86-2.25-1.78-3.32-2.73.03.06.06.12.11.17.11.14.23.27.35.41.46.52.97,1,1.5,1.46,1.01.87,2.08,1.67,3.16,2.44,2.42,1.72,4.97,3.25,7.57,4.68.23.12.45.24.68.37Z"/>
            <path class="cls-26" d="M42.68,24.13c-.39.76-.11,1.8.07,2.58.23.98.56,1.94.94,2.87,1.07,2.63,2.56,5.04,4.24,7.31,3.09,4.16,6.8,7.99,11.04,10.98,2.06,1.45,4.25,2.72,6.54,3.77,1.12.52,2.28.95,3.45,1.34.58.19,1.16.37,1.74.54.57.16,1.13.25,1.71.36.59.12,1.19.22,1.79.31.43.07.21-.49-.06-.58-1.16-.37-2.27-.85-3.41-1.28-1.12-.43-2.21-.9-3.29-1.42-2.14-1.02-4.09-2.11-6.02-3.39-.89-.59-1.75-1.21-2.59-1.87-.61-.55-1.24-1.08-1.84-1.64-1.02-.94-1.99-1.89-2.89-2.94-1.85-2.15-3.46-4.45-4.73-6.98-.62-1.24-1.17-2.52-1.71-3.81-.48-1.14-.98-2.28-1.42-3.43-.3-.77-.59-1.6-1.06-2.29-.31-.45-.73-.92-1.3-1.01-.51-.08-.97.1-1.21.57Z"/>
            <path class="cls-13" d="M64.92,50.98c-3.01-1.53-5.86-3.38-8.45-5.53-2.52-2.09-4.85-4.45-6.97-6.94-1.61-1.89-3.11-3.89-4.41-6.01.84,1.53,1.81,2.99,2.85,4.4,3.09,4.16,6.8,7.99,11.04,10.98,2.06,1.45,4.25,2.72,6.54,3.77,1.12.52,2.28.95,3.45,1.34.58.19,1.16.37,1.74.54.46.13.91.21,1.37.3-2.48-.7-4.87-1.68-7.17-2.84Z"/>
            <path class="cls-26" d="M35.08,22.46c-.41,1.03-.03,2.3.27,3.32.68,2.33,1.93,4.45,3.18,6.51,1.24,2.04,2.61,4,4.13,5.84,1.5,1.81,3.11,3.55,4.89,5.08.88.76,1.8,1.44,2.78,2.06.56.35,1.14.66,1.73.94.67.45,1.35.87,2.08,1.23.9.45,1.86.75,2.76,1.2.46.23.9.5,1.3.81.21.16.3-.12.14-.26-1.29-1.08-2.82-1.83-4.27-2.69-.12-.1-.23-.2-.35-.28-.42-.3-.85-.58-1.28-.86-.21-.13-.41-.27-.61-.41-1.45-1.17-2.76-2.53-4.01-3.89-1.56-1.72-3.1-3.44-4.39-5.38-1.32-1.98-2.59-4.04-3.67-6.16-.53-1.04-1.01-2.11-1.4-3.2-.18-.51-.36-1.03-.42-1.48-.08-.54-.14-1.09-.37-1.6-.26-.57-.72-1.24-1.38-1.36-.49-.09-.91.13-1.09.6Z"/>
            <path class="cls-13" d="M58.41,49.38c-.14-.08-.27-.17-.41-.25-2.18-1.27-4.49-2.32-6.64-3.64-2.18-1.34-4.12-2.99-5.82-4.9-.85-.95-1.64-1.95-2.42-2.96-.8-1.04-1.59-2.08-2.33-3.16-1.45-2.13-2.74-4.36-3.86-6.68-.75-1.55-1.41-3.13-2.01-4.74-.12.9.17,1.9.41,2.73.68,2.33,1.93,4.45,3.18,6.51,1.24,2.04,2.61,4,4.13,5.84,1.5,1.81,3.11,3.55,4.89,5.08.88.76,1.8,1.44,2.78,2.06.56.35,1.14.66,1.73.94.67.45,1.35.87,2.08,1.23.9.45,1.86.75,2.76,1.2.46.23.9.5,1.3.81.12.09.2.03.22-.06Z"/>
            <path class="cls-26" d="M38.57,50.29c-2.1.59-4.19,1.3-6.19,2.17-1.91.83-3.78,1.84-5.39,3.19-.86.72-1.62,1.59-2.18,2.57-.28.49-.47,1.01-.61,1.55-.07.25-.13.51-.16.76-.03.19.02.32.07.49.03.14.02.29.02.44,0,.16.31.4.41.19.04-.09.08-.21.16-.28.09-.08.18-.08.27-.2.12-.17.21-.39.32-.57.22-.35.5-.69.75-1,.57-.73,1.27-1.38,1.98-1.96,1.56-1.28,3.15-2.2,5.01-3.04,4.45-2.03,9.27-3.18,14.06-4.09,1.45-.27,2.92-.52,4.39-.66,1.45-.14,2.87-.18,4.32-.15.42,0,.17-.61-.07-.69-1.3-.46-2.69-.59-4.06-.64-1.38-.05-2.79.1-4.16.26-3,.35-6.01.85-8.92,1.66Z"/>
            <path class="cls-26" d="M55.9,52.02c-1.26.17-2.45.58-3.69.86-.29.07.03.51.24.51.77-.01,1.54.04,2.32.05.75,0,1.49-.01,2.24-.02,1.44-.02,2.88,0,4.32.11,1.44.11,2.88.26,4.32.38,1.43.12,2.88.28,4.32.24.53-.01.23-.78-.09-.89-2.23-.76-4.63-1.04-6.97-1.25-1.21-.11-2.41-.24-3.63-.23-1.14,0-2.26.1-3.38.25Z"/>
          </g>
          <path class="cls-33" d="M10.69,38.2c-1.3.26-2.57.69-3.84,1.07-.29.09.02.57.25.54,1.2-.17,2.4-.22,3.61-.3,1.19-.08,2.37-.17,3.56-.19,2.35-.04,4.7-.07,7.05.08,4.37.27,8.7,1,13,1.79,1.16.21,2.34.42,3.47.75,1.13.32,2.25.69,3.37,1.04.15.05.27-.08.28-.22.01-.18-.13-.32-.27-.4-.96-.57-1.96-1.03-3-1.43-1.04-.4-2.09-.8-3.16-1.13-2.13-.66-4.33-1.12-6.53-1.46-4.61-.72-9.24-1.12-13.9-.73-1.3.11-2.61.35-3.89.6Z"/>
          <path class="cls-33" d="M8.89,25.55c.22.39.38.81.59,1.2.22.41.49.79.78,1.16.57.75,1.21,1.43,1.9,2.07,1.46,1.37,3.08,2.55,4.77,3.62,3.56,2.25,7.34,4.28,11.32,5.68,2.4.84,4.86,1.53,7.39,1.81.3.03.55-.14.52-.47-.03-.35-.32-.62-.64-.71-4.25-1.22-8.34-2.87-12.32-4.78-1.69-.81-3.36-1.69-5-2.6-1.62-.89-3.17-1.81-4.69-2.93-.81-.6-1.6-1.23-2.34-1.93-.37-.35-.71-.72-1.06-1.07-.35-.35-.73-.72-.98-1.15-.1-.16-.35-.1-.24.09Z"/>
        </g>
        <g>
          <path class="cls-16" d="M141.61,309.88h-.8c-5.57-6.44-35.15-11.64-35.51-11.64h-28.36c-.35,0-28.96,5.04-35.21,11.32h-1.11c-.36.98,0,2.19,0,2.19h0c.06.99.95,1.91,2.52,2.75,6.64,3.58,25.3,5.78,43.33,6.28,1.55.04,3.1.07,4.64.09,23.47-.28,49.94-3.54,50.48-9.07h0c.38-.98,0-1.92,0-1.92Z"/>
          <path class="cls-10" d="M40.63,309.55c-.12.51,0,.84,0,.84.06.99.95,1.91,2.52,2.75,6.64,3.58,25.3,5.78,43.33,6.28,1.55.04,3.1.07,4.64.09,23.47-.28,49.94-3.54,50.48-9.07h0c.12-.3.16-.59.17-.86l-101.15-.04Z"/>
          <path class="cls-24" d="M141.26,308.56c-4.13-6.71-35.6-12.25-35.96-12.25h-28.36c-.36,0-31.83,5.54-35.96,12.25-3.65,5.94,21.49,9.61,45.5,10.29,1.55.04,3.1.07,4.64.09,25.27-.3,54.03-4.06,50.14-10.38Z"/>
          <g class="cls-30">
            <path class="cls-16" d="M141.26,308.56c-4.13-6.71-35.6-12.25-35.96-12.25h-28.36c-.19,0-8.47,1.44-17.09,3.75.3-.04.59-.08.89-.11.81-.09,1.62-.14,2.43-.14.62,0,1.28,0,1.88.16.65.18.78.62.64,1.23-.07.35-.16.69-.1,1.05.09.53.46.94.85,1.28.99.86,2.27,1.34,3.51,1.72,1.32.4,2.69.72,4.03,1.03,3.25.74,6.57,1.13,9.9,1.4,6.7.54,13.38-.32,20.03-1.05,3.11-.34,6.39-.92,9.46-.04,1.09.32,2.17.73,3.22,1.17,1.06.44,2.11.94,3.02,1.64.98.76,1.9,1.95.9,3.07-.91,1.02-2.47,1.48-3.73,1.84-3.22.94-6.62,1.33-9.94,1.77-6.56.89-13.16,1.43-19.78,1.55-3.29.06-6.59.02-9.88-.15-3.23-.16-6.44-.49-9.66-.75-3.16-.25-6.33-.51-9.47-1.01-3.04-.48-6.01-1.25-8.91-2.3-2.26-.82-4.69-1.87-6.17-3.84-.43-.58-.87-1.33-1.09-2.1-.38.36-.68.72-.91,1.08-3.65,5.94,21.49,9.61,45.5,10.29,1.55.04,3.1.07,4.64.09,25.27-.3,54.03-4.06,50.14-10.38Z"/>
          </g>
          <path class="cls-24" d="M97.64,184.23c.32-8.74,2.27-12.87,2.27-12.87,1.74-6.8,71.54-109.32,72.86-112.46,1.78-4.21-7.69-6.88-7.69-6.88-12.31-4.79-67.04-6.8-67.04-6.8l-13.83.18c-19.68.42-54.73,1.84-67.04,6.62,0,0-9.47,2.67-7.69,6.88,1.32,3.14,71.12,105.65,72.86,112.46,0,0,1.94,4.12,2.27,12.87,0,0,.17,2.46.42,6.64l.43,76.61c-.62,7.27-1.57,13.6-2.95,18.19,0,0-2.43,7.53-7.53,10.44-5.1,2.91-9.71,4.86-4.61,6.8,3.35,1.28,8.8,2.45,15.31,2.96,0,0,3.69.29,5.46.26,1.78.03,5.46-.26,5.46-.26,6.51-.52,11.96-1.69,15.31-2.96,5.1-1.94.49-3.89-4.61-6.8-5.1-2.91-7.53-10.44-7.53-10.44-1.38-4.59-2.33-10.92-2.95-18.19l.43-76.61c.24-4.18.42-6.64.42-6.64Z"/>
          <g class="cls-23">
            <path class="cls-8" d="M162.28,53.47c-11.84-4.61-64.5-6.54-64.5-6.54l-13.31.17c-18.93.4-52.66,1.77-64.5,6.37,0,0-9.11,2.57-7.4,6.62.97,2.29,39.89,59.66,59.32,90.04,1.44,2.13,7.25,9.49,18.38,9.53,12.79.04,19.96-9.4,19.96-9.4h.05c19.41-30.35,58.43-87.88,59.4-90.17,1.71-4.05-7.4-6.62-7.4-6.62Z"/>
          </g>
          <g>
            <path class="cls-41" d="M90.27,159.66c12.79.04,19.96-9.4,19.96-9.4h.05c13.45-21.04,36.33-55.14,49.43-74.85-15.44-4.03-61.93-5.74-61.93-5.74l-13.31.17c-17.72.38-48.39,1.6-61.96,5.53,13.06,19.66,35.9,53.7,49.38,74.76,1.44,2.13,7.25,9.49,18.38,9.53Z"/>
            <path class="cls-17" d="M90.27,159.66c12.79.04,19.96-9.4,19.96-9.4h.05c13.45-21.04,36.33-55.14,49.43-74.85-15.44-4.03-61.93-5.74-61.93-5.74l-13.31.17c-17.72.38-48.39,1.6-61.96,5.53,13.06,19.66,35.9,53.7,49.38,74.76,1.44,2.13,7.25,9.49,18.38,9.53Z"/>
            <path class="cls-16" d="M73.27,154.29s7.53,11.23,9.07,15.38,2.42,7.43,2.58,4.77.58-3.74,3.98-4.85c3.4-1.11,5.83.2,6.96.95s2.35.26,3.48-2.65c1.13-2.91,4.93-8.88-1.13-7.61-6.31,1.32-14.17.89-18.86-2.27-5.01-3.37-7.58-7.68-6.07-3.72Z"/>
            <path class="cls-22" d="M92.78,48.47s-60.5-.57-75.02,8.62c0,0-3.75.03-2.13,3.68,1.63,3.65,59.01,89.55,59.01,89.55,0,0,5.68,7.45,12.55,7.29,0,0,3.76.16,3.7-1.46-.06-1.62-19.38-79.53-18.06-90.44,1.32-10.91,53.29-12.33,61.88-11.86,8.58.46,11.01-.72,8.1-1.51s-41.77-3.9-50.03-3.87Z"/>
            <path class="cls-20" d="M153.17,52.85s15.71,2.27,13.44,8.1c-2.27,5.83-54.57,82.9-54.57,82.9,0,0-5.99,10.85-14.25,12.95,0,0-4.05.65.97-2.59,5.02-3.24,50.19-93.59,49.06-96.66-1.13-3.08-19.41-5.47-11.64-6.02,6.13-.43,15.58,1.09,16.98,1.33Z"/>
            <path class="cls-8" d="M78.53,159.68s6.8,6.36,7.93,20.6c1.13,14.25,2.27,89.86.97,102.49-1.3,12.63-10.69,16.03-12.31,16.52-1.62.49-1.62,1.3,0,2.1,1.62.81,14.9,2.91,21.37,1.62,0,0,5.18-.16-.81-1.3-5.99-1.13-11.76-1.58-9.44-5.41,2.32-3.82,4.68-8.52,4.87-23.74.2-15.22-1.97-82.62-2.62-91.97-.65-9.35-6.39-19.77-9.97-20.93Z"/>
            <path class="cls-7" d="M103.87,157.62c-4.37,5.66-11.29,6.07-11.29,6.07-2.91,0-6.7.09-8.26-.73-2.55-1.34-5.74-4.63-4.71-2.67,0,0,3.3,6.06,4.35,9.59,1.05,3.53,1.09.24,2.19-1.34.86-1.24,3.46-1.26,4.78-1.39,2.12-.21,7.2-.79,6.39,4.52-.26,1.72.88,1.14,1.28-.21,1.03-3.52,5.41-11.41,6.5-13.84,1.09-2.42-1.21,0-1.21,0Z"/>
            <path class="cls-6" d="M99.2,162.34s-.05,0-.07.01c-.72.15-1.2.74-1.8,1.11-.68.42-1.53.68-2.31.82-.33.06-.66.09-.97.23-.3.13-.58.39-.63.72-.14.97,1.65.89,2.2,1.16.36.18.66.46.99.7.71.51,1.48.54,2.12-.1.64-.65,2.47-4.97.47-4.64Z"/>
            <path class="cls-6" d="M88.1,165.61c-.13-.32-.47-.54-.76-.7-.32-.18-.67-.33-1.02-.46-.34-.13-.69-.26-1.05-.14-.36.12-.56.46-.54.83.02.34.17.66.39.92.12.3.3.62.58.78.29.17.69.14,1.01.08.39-.07.79-.22,1.09-.48.23-.2.42-.52.3-.83Z"/>
            <path class="cls-5" d="M18.25,60.42l56.89,87.8s1.67,3.56,4.48,5.34c0,0,1.92.81,1.31,0-.61-.81-56.68-94.29-56.68-94.29,0,0-.66-1.12-2.41-.76-1.75.37-4.58.36-3.58,1.9Z"/>
            <path class="cls-12" d="M164.1,61.85s-56.27,86.86-59.67,89.61c-3.4,2.75,55.27-91.32,55.27-91.32,0,0,2.37-2.14,4.4,1.71Z"/>
            <path class="cls-4" d="M67.08,299.09s-21.65,5.32-24.04,8.99,10.75,7.37,17.62,8.01c6.87.65-3.17-2.06.84-4.86,4.01-2.79,10.44-6.25,10.44-6.25,0,0-7.16-3.7-4.86-5.89Z"/>
            <path class="cls-9" d="M115.85,299.53s1.65,3.07-3.19,4.87c-4.83,1.8,5.21,1.45,6.83-.33,1.62-1.78,13.28,4.53,12.47,6.72-.81,2.19-15.46,5.29-12.95,5.4,2.51.11,18.38-2.4,20.4-6.13,2.02-3.72-18.05-10.12-23.56-10.52Z"/>
            <path class="cls-27" d="M64.21,300.54c-1.26-.42-2.57.38-3.74.74-.04.01-.08.03-.11.06,0,0,0,0-.01,0-.89.26-1.78.53-2.66.82-1.76.57-3.5,1.17-5.25,1.78-1.68.59-3.36,1.19-4.97,1.94-.62.29-1.26.59-1.83.97-.5.33-1.01.78-1.18,1.38-.17.63.12,1.27.5,1.76.42.55.97.97,1.59,1.27.35.17.72.32,1.11.38.23.04.5.06.71-.08.17-.11.23-.3.25-.49.03-.29.02-.59.09-.88.34-1.42,1.79-2.05,2.95-2.68,1.59-.86,3.14-1.79,4.75-2.6.81-.41,1.63-.79,2.44-1.18.74-.36,1.47-.75,2.21-1.1.95-.44,2.08-.7,2.87-1.42.15-.14.28-.3.36-.5.03-.08,0-.15-.08-.18Z"/>
            <path class="cls-4" d="M108.35,305.59c-.51-.04-1.04.01-1.54.08-1.11.15-2.23.32-3.34.46-1.38.18-2.77.32-4.15.46-.24.02-.49.04-.73.06-2.17.18-4.35.29-6.53.34-2.15.05-4.3,0-6.45-.08-2.13-.07-4.25-.14-6.37-.32-1.16-.1-2.31-.24-3.46-.4-1.15-.15-2.29-.34-3.4-.67-.14-.04-.44.16-.3.32.78.91,1.96,1.3,3.07,1.61.52.15,1.04.28,1.56.44.46.14,1.08.3,1.36.72.29.43-.13,1.07-.34,1.45-.32.57-.6,1.17-.87,1.77-.31.69-.58,1.42-.95,2.07-.3.54-.71.81-1.3.96-.68.17-1.39.21-2.09.19-.69-.02-1.38-.11-2.03-.36-.16-.06-.43.2-.25.33.82.62,1.98.71,2.96.84,1.3.17,2.58.43,3.87.59,1.45.18,2.91.29,4.36.42,1.5.13,3,.24,4.5.17.6-.03,1.2-.06,1.8-.14.56-.08,1.14-.2,1.61-.54.08-.06.17-.21.06-.29-.26-.16-.55-.22-.85-.25-.2-.02-.54,0-.7-.15-.21-.2.06-.66.15-.86.19-.42.43-.83.69-1.21.55-.78,1.28-1.38,2.15-1.79,1.02-.48,2.08-.85,3.16-1.15,2.18-.61,4.42-.96,6.63-1.43,1.17-.24,2.33-.52,3.48-.84.54-.15,1.07-.32,1.6-.46.46-.13.93-.25,1.39-.4.45-.15.89-.33,1.28-.6.25-.17.54-.39.68-.67.25-.5-.32-.65-.7-.68Z"/>
            <path class="cls-27" d="M87.39,307.98c-.44-.12-.91-.14-1.36-.14-.49,0-.97,0-1.46-.04-.73-.07-1.47-.19-2.21-.15-.06,0-.12.02-.18.02-.36-.05-.72-.08-1.09-.04-.36.04-1.05.17-.97.67.04.26.19.52.3.75.14.29.29.57.38.88.14.46.1.91.02,1.38-.17.92-.39,1.83-.47,2.76-.05.53-.15,1.62.56,1.79.87.21,1.58-.63,1.98-1.27.51-.81.84-1.71,1.22-2.58.4-.9,1-1.96,2.01-2.24.43-.12.87-.21,1.27-.39.31-.13.72-.37.71-.75,0-.37-.42-.54-.72-.62Z"/>
            <path class="cls-27" d="M95.26,307.87c-.56-.36-1.35-.4-1.99-.38-.36.01-.73.05-1.09.15-.28.08-.62.2-.78.45,0,0,0,0,0,0-.08.04-.15.09-.21.15-.05.05-.08.13-.04.19.17.24.53.31.8.36.42.07.85.08,1.28.05.43-.03.86-.1,1.27-.24.3-.1.63-.26.78-.55.03-.06.05-.15-.02-.19Z"/>
            <path class="cls-27" d="M84.69,294.42c-.11-.33-.42-.35-.7-.2-1.84.98-2.79,3.05-4.69,3.88-.67.29-3.48,1.2-2.78,2.35.23.37.7.58,1.09.73.64.25,1.32.39,1.99.51.87.16,1.78.29,2.66.22.6-.05,1.55-.28,1.42-1.08-.09-.51-.57-.87-.65-1.39-.05-.3.09-.61.2-.88.15-.32.33-.62.5-.93.36-.68.67-1.43.87-2.18.09-.31.2-.71.09-1.04Z"/>
            <path class="cls-24" d="M105.51,297.86c-1.62-1.04-3.46-1.86-4.81-3.26-.53-.97-1.13-1.9-1.65-2.88-.61-1.13-1.12-2.33-1.51-3.55-.39-1.23-.64-2.49-.91-3.75-.1-.45-.22-.9-.29-1.36-.05-.37-.09-.75-.14-1.12-.06-.45-.13-.9-.26-1.34-.1-.32-.24-.66-.51-.87-.13-.09-.3.06-.32.18-.25,1.37-.18,2.78-.11,4.16.07,1.36.12,2.73.24,4.09.12,1.29.33,2.55.58,3.82.17.9.31,1.81.53,2.7.39,1.56,1.12,3.34,2.78,3.89.7.23,1.43.41,2.11.69.31.13,1.3.55,1.02,1.05-.12.21-.35.38-.54.52-.24.19-.5.37-.74.56-.21.16-.88.7-.36.92.42.18,1,.07,1.43.02.6-.07,1.2-.17,1.79-.29.65-.14,1.29-.31,1.91-.55.5-.2,1.04-.45,1.41-.86,1.02-1.16-.82-2.25-1.64-2.78Z"/>
            <path class="cls-8" d="M105.77,299.3c-.5-.08-.99.16-1.42.45-.29.09-.57.23-.8.36-.48.26-.98.6-1.28,1.06-.03.04-.04.11,0,.14.28.33.75.33,1.14.28.51-.07,1.02-.26,1.47-.5.37-.19.76-.42,1.03-.75.15-.18.31-.41.3-.66,0-.25-.22-.36-.44-.4Z"/>
          </g>
          <path class="cls-14" d="M18.33,55.09s80.26-15.59,146.67,1.75c0,0-66.25-12.46-146.67-1.75Z"/>
        </g>
        <g class="cls-25">
          <path class="cls-35" d="M66.62,70.76c1-.03,2-.06,3-.07.23,0,.46,0,.68,0,5.62-.4,11.27-.49,16.9-.86.17-.01.27.1.28.24.1,0,.2-.02.31-.02-.9-14.73-2.67-24.15-2.67-24.15l-26.69,2.41s-.02.08-.04.11c.23.6.45,1.21.66,1.85,1.69,5.19,2.7,11.46,3.49,17.58.13.97.24,1.95.35,2.92h3.72Z"/>
          <path class="cls-18" d="M66.62,70.76c1-.03,2-.06,3-.07.23,0,.46,0,.68,0,4.99-.36,9.99-.47,14.98-.75-.3-4.93-.73-9.87-1.37-14.7-.41-3.08-.89-6.17-1.51-9.1l-23.96,2.16s-.02.08-.04.11c.23.6.45,1.21.66,1.85,1.69,5.19,2.7,11.46,3.49,17.58.13.97.24,1.95.35,2.92h3.72Z"/>
          <g class="cls-40">
            <path class="cls-18" d="M66.62,70.76c1-.03,2-.06,3-.07.23,0,.46,0,.68,0,4.99-.36,9.99-.47,14.98-.75-.3-4.93-.73-9.87-1.37-14.7-.41-3.08-.89-6.17-1.51-9.1l-23.96,2.16s-.02.08-.04.11c.23.6.45,1.21.66,1.85,1.69,5.19,2.7,11.46,3.49,17.58.13.97.24,1.95.35,2.92h3.72Z"/>
          </g>
        </g>
        <path class="cls-31" d="M50.92,45.7c-.2.75-.46,1.49-.73,2.22-.45,1.22-.95,2.43-1.48,3.62-1.11,2.49-2.37,4.92-3.73,7.29-2.38,4.17-5.03,8.19-7.96,12-2.24,2.91-4.64,5.72-7.27,8.29.29.31.59.61.9.89,1.69,1.54,4.02,3.08,6.73,4.66.1-.05.2-.09.29-.14.67-.47,1.34-.93,2.01-1.39,2.57-1.78,5.13-3.56,7.74-5.28,2.68-1.76,5.4-3.45,8.23-4.96.93-.5,1.87-.98,2.83-1.43.02-.22.02-.43.02-.65-.01-1.16-.27-2.3-.31-3.46-.03-.7.08-1.42.17-2.12.1-.73.22-1.45.38-2.16.61-2.8,1.6-5.62,3.34-7.92,1.4-1.85,3.21-3.34,5.23-4.48,2.06-1.16,4.28-1.98,6.53-2.7,2.95-.95,5.89-1.96,8.87-2.84.25-.07.5-.15.76-.22-11.25-.15-22.63.23-32.53.78Z"/>
        <g>
          <g>
            <path class="cls-18" d="M49.65,71.42c-.92-2.97-2.09-5.85-3.28-8.72-.47-1.14-.97-2.27-1.38-3.43-.32-.91-.61-1.83-.93-2.73-.66-1.88-1.4-3.79-2.59-5.4-.54-.74-1.2-1.4-1.98-1.89-.1-.07-.21-.13-.32-.19-.42.15-.85.33-1.3.56,0,0-15.88,14.81-14.49,15.16,8.21,2.09,10.39,18.21,12.49,17.25,2.11-.95,13.72-7.78,13.72-7.78,0,0,.1-.92.18-2.42-.04-.14-.08-.27-.12-.41Z"/>
            <path class="cls-19" d="M34.96,77.91c-1.31-2.62-2.19-5.43-3.59-8.01-.97-1.78-2.27-3.43-4.06-4.44-1.3-.73-2.75-1.04-4.21-1.06-.13.15-.09.29.26.38,8.21,2.09,10.39,18.21,12.49,17.25.27-.12.7-.34,1.23-.63-.81-1.1-1.52-2.27-2.13-3.5Z"/>
            <path class="cls-18" d="M53.67,46.15s8.74-8.81,12.99-9.41,15.78,1.12,18.29,8.6l-31.28.81Z"/>
            <path class="cls-2" d="M79.19,45.01c-2.7-.6-5.42-1.11-8.16-1.43-1.1-.13-2.2-.21-3.3-.26-.86-.04-1.76-.1-2.55-.46-.77-.35-1.27-1.04-1.41-1.87-.14-.85.13-1.7.54-2.45.27-.5.6-.96.96-1.4-4.51,1.86-11.59,9-11.59,9l27.38-.71c-.62-.15-1.24-.29-1.86-.43Z"/>
            <path class="cls-35" d="M60.31,42.15c1.41-1.11,2.99-2.1,4.68-2.72,1.59-.58,3.31-.81,5-.8,1.78.02,3.57.31,5.26.88,1.63.55,3.19,1.37,4.49,2.51,1.07.93,1.92,2.09,2.46,3.4l2.74-.07c-2.5-7.48-14.04-9.2-18.29-8.6-4.25.6-12.99,9.41-12.99,9.41l2.76-.07c1.14-1.45,2.43-2.79,3.88-3.94Z"/>
            <g>
              <path class="cls-37" d="M66.66,36.74c-3.48.53-6.95,1.21-10.37,2.04-1.36.33-2.73.66-4.08,1.01-5.52,2.92-10.25,7.25-13.24,12.78-1.64,3.02-2.65,6.25-3.36,9.59-.83,3.89-1.31,7.88-1.18,11.86.06,1.9.33,3.75.65,5.63.13.78.3,1.75.79,2.38.9-.37,1.79-.79,2.66-1.23,1.59-.81,3.14-1.72,4.66-2.66.74-.45,1.48-.92,2.21-1.38.75-.47,1.51-.91,2.27-1.36,2.33-1.39,4.66-2.82,6.86-4.42-.52-4.06-.28-8.22.25-12.26.55-4.24,1.44-8.54,3.19-12.45,1.68-3.76,4.31-7.15,7.99-9.1.31-.17.63-.32.96-.46-.08.01-.17.02-.25.04Z"/>
              <path class="cls-2" d="M62.75,37.8c-.69.2-1.37.45-2.02.76-.65.31-1.28.7-1.88,1.09-2.24,1.43-4.12,3.39-5.56,5.62-1.58,2.45-2.78,5.11-3.65,7.89-.86,2.72-1.44,5.51-2.03,8.3-.3,1.43-.6,2.85-.94,4.27-.32,1.35-.65,2.72-1.11,4.03-.29.83-.74,1.6-1.24,2.31-.6.86-1.29,1.66-2.06,2.36-1.37,1.23-3.26,2.39-5.17,1.94-1.29-.3-2.15-1.27-2.66-2.41,0,.02,0,.04,0,.06.06,1.9.33,3.75.65,5.63.13.78.3,1.75.79,2.38.9-.37,1.79-.79,2.66-1.23,1.59-.81,3.14-1.72,4.66-2.66.74-.45,1.48-.92,2.21-1.38.75-.47,1.51-.91,2.27-1.36,2.33-1.39,4.66-2.82,6.86-4.42-.52-4.06-.28-8.22.25-12.26.55-4.24,1.44-8.54,3.19-12.45,1.68-3.76,4.31-7.15,7.99-9.1.13-.07.26-.13.39-.2-1.2.26-2.42.48-3.6.83Z"/>
              <path class="cls-35" d="M62.77,37.41c-1.47,1-2.82,2.2-3.99,3.54-2.09,2.39-3.67,5.19-4.85,8.13-1.23,3.06-2.03,6.28-2.48,9.54-.45,3.25-.56,6.56-.31,9.83.11,1.49.3,2.98.58,4.46.95-.62,1.89-1.25,2.81-1.92-.52-4.06-.28-8.22.25-12.26.55-4.24,1.44-8.54,3.19-12.45,1.68-3.76,4.31-7.15,7.99-9.1.31-.17.63-.32.96-.46-.08.01-.17.02-.25.04-1.3.2-2.6.43-3.89.67Z"/>
              <path class="cls-18" d="M53.08,67.92c-.17-3.19-.16-6.39.13-9.57.29-3.11.85-6.22,1.86-9.19.96-2.82,2.34-5.51,4.26-7.81,1.39-1.67,3.06-3.08,4.9-4.21-.49.09-.97.17-1.46.26-1.47,1-2.82,2.2-3.99,3.54-2.09,2.39-3.67,5.19-4.85,8.13-1.23,3.06-2.03,6.28-2.48,9.54-.45,3.25-.56,6.56-.31,9.83.11,1.49.3,2.98.58,4.46.56-.36,1.11-.73,1.66-1.11-.12-1.29-.23-2.58-.3-3.87Z"/>
            </g>
            <path class="cls-3" d="M47.47,45.84c-.51-.69-1.51-.41-2.14-.06-.76.42-1.44.99-1.99,1.65-.47.57-1.03,1.34-.79,2.13.15.49.6.69,1.1.6.22-.04.43-.13.62-.25.14-.04.28-.08.41-.14.81-.37,1.56-1,2.15-1.66.49-.56,1.18-1.52.64-2.26Z"/>
            <g class="cls-11">
              <path class="cls-1" d="M40.05,52.62s0,0,.01-.01c.01-.02.02-.03-.01.01Z"/>
              <path class="cls-1" d="M41.25,52.47c-.02-.09-.07-.16-.14-.21-.08-.05-.16-.08-.26-.08-.01,0-.03,0-.04,0-.14,0-.14,0-.25.04-.11.03-.13.04-.24.12-.05.04-.04.01-.14.12-.04.04-.07.08-.1.13-.02.04-.07.13-.08.16,0,.03-.03.12-.03.15,0,.04,0,.09,0,.13-.02.05-.04.11-.04.17,0,.05,0,.1.03.15.02.05.05.09.09.11.12.09.3.07.43,0,.02,0,.03-.02.05-.03.06-.01.11-.03.17-.05.03-.01.05-.03.08-.05.05-.02.1-.06.14-.1.02-.02.05-.04.08-.07.02-.02.04-.06.06-.07.01-.01.04-.05.06-.07,0,0,0,0,0,0,.02-.03.06-.11.07-.15,0,0,0,0,0-.01.02-.05.03-.08.03-.11.03-.09.05-.19.02-.28Z"/>
            </g>
            <path class="cls-3" d="M39.3,57.51c-.1-.27-.4-.42-.68-.33-.9.27-1.5.98-1.86,1.82-.25.59-.41,1.39-.18,2.02.02.14.04.28.09.42.07.2.24.31.45.32.79.01,1.44-.59,1.78-1.26.32-.63.5-1.33.52-2.04,0-.31,0-.65-.12-.95Z"/>
            <path class="cls-3" d="M49.01,43.56c-.33,0-.65.59-.2.59.33,0,.65-.59.2-.59Z"/>
            <path class="cls-3" d="M36.95,72.64s0,0,0,0c-.01-.04-.03-.07-.05-.11-.02-.03-.07-.07-.08-.08,0,0,0,0,0,0-.1-.05-.12-.06-.24-.07,0,0,0,0-.01,0-.07,0-.14,0-.2.03-.07.02-.14.05-.2.1-.06.04-.12.09-.16.16-.05.05-.08.11-.1.18l-.02.12c0,.08.01.15.06.22.02.02.03.03.05.05,0,0,0,0,0,0,0,0,.01.01.02.02,0,0,0,0,0,0,0,0,.02.02.03.03.05.04.1.05.16.06.06.01.13.01.19,0,.05-.01.09-.03.14-.04.09-.04.18-.1.25-.17.03-.04.06-.07.09-.11.05-.07.07-.15.08-.24,0,0,0,0,0,0,0-.04,0-.08-.01-.12Z"/>
            <path class="cls-3" d="M30.28,63.4c-.4-.49-1.09-.68-1.71-.68-.66,0-1.41.27-1.79.83-.17.15-.28.35-.3.58-.03.49.36.86.81.97.06.01.12.02.17.03.03,0,.05,0,.08.01-.17-.02-.15-.02.05,0,.02,0,.03,0,.05,0,.15,0,.29-.01.44-.03.19-.02.37-.07.55-.12.45-.14.94-.32,1.31-.63.15-.13.32-.28.38-.48.05-.16.07-.35-.05-.49Z"/>
            <path class="cls-3" d="M75.21,40.87c-.75-.59-1.93-.66-2.82-.27-.53-.04-1.01.18-1.41.54-.13.11-.2.31-.16.48.14.64.76,1.03,1.36,1.17.69.16,1.47.13,2.11-.19.49-.25.86-.61,1.09-1.11.1-.22.01-.47-.16-.61Z"/>
          </g>
          <path class="cls-18" d="M28.46,85.74s-10.77-15.77-23.82-7.08c0,0-2.99,1.38-1.67,1.53,7.87.92,11.88,15.6,13.72,14.46,1.84-1.14,11.77-8.91,11.77-8.91Z"/>
          <path class="cls-19" d="M15.35,90.93c-1.54-2.26-2.7-4.77-4.32-6.98-1.12-1.53-2.53-2.9-4.31-3.62-1.29-.52-2.68-.63-4.04-.46-.11.16-.05.28.29.32,7.87.92,11.88,15.6,13.72,14.46.24-.15.6-.4,1.07-.74-.89-.92-1.69-1.92-2.41-2.98Z"/>
          <path class="cls-19" d="M12.82,76.05c-.26.9-.47,1.81-.62,2.74-.43,2.71-.34,5.47.11,8.17.14.83.32,1.66.52,2.48,1.81,3.13,3.05,5.72,3.86,5.21,1.84-1.14,11.77-8.91,11.77-8.91,0,0-6.56-9.6-15.64-9.69Z"/>
          <g>
            <path class="cls-37" d="M39.66,48.85c-3.17.92-6.29,1.98-9.37,3.17-1.22.47-2.45.95-3.66,1.44-4.75,3.39-8.61,7.99-10.7,13.48-1.14,3-1.69,6.12-1.93,9.31-.29,3.71-.24,7.47.37,11.14.29,1.76.77,3.44,1.3,5.14.22.71.49,1.59,1.03,2.11.79-.45,1.56-.95,2.32-1.47,1.38-.95,2.7-1.98,4-3.04.63-.51,1.26-1.03,1.88-1.55.63-.53,1.29-1.03,1.94-1.54,1.99-1.58,3.97-3.19,5.82-4.95-.98-3.7-1.27-7.59-1.28-11.4-.01-4,.28-8.09,1.42-11.94,1.1-3.69,3.11-7.16,6.29-9.43.27-.19.55-.37.83-.55-.08.02-.15.04-.23.06Z"/>
            <path class="cls-2" d="M36.16,50.31c-.62.27-1.21.59-1.78.96-.56.37-1.1.8-1.61,1.24-1.9,1.61-3.4,3.65-4.46,5.89-1.16,2.47-1.94,5.09-2.41,7.77-.46,2.63-.66,5.29-.86,7.95-.1,1.36-.21,2.72-.35,4.08-.13,1.29-.27,2.6-.53,3.88-.17.8-.49,1.57-.86,2.3-.45.87-.99,1.7-1.62,2.44-1.11,1.31-2.72,2.62-4.56,2.44-1.23-.12-2.15-.91-2.76-1.91,0,.02,0,.04,0,.06.29,1.76.77,3.44,1.3,5.14.22.71.49,1.59,1.03,2.11.79-.45,1.56-.95,2.32-1.47,1.38-.95,2.7-1.98,4-3.04.63-.51,1.26-1.03,1.88-1.55.63-.53,1.29-1.03,1.94-1.54,1.99-1.58,3.97-3.19,5.82-4.95-.98-3.7-1.27-7.59-1.28-11.4-.01-4,.28-8.09,1.42-11.94,1.1-3.69,3.11-7.16,6.29-9.43.11-.08.22-.15.34-.23-1.08.39-2.18.74-3.24,1.21Z"/>
            <path class="cls-35" d="M36.13,49.95c-1.24,1.11-2.34,2.39-3.26,3.78-1.64,2.47-2.77,5.27-3.49,8.14-.76,2.99-1.1,6.08-1.12,9.16-.02,3.07.29,6.15.92,9.15.29,1.37.65,2.73,1.09,4.06.81-.69,1.6-1.39,2.37-2.13-.98-3.7-1.27-7.59-1.28-11.4-.01-4,.28-8.09,1.42-11.94,1.1-3.69,3.11-7.16,6.29-9.43.27-.19.55-.37.83-.55-.08.02-.15.04-.23.06-1.18.34-2.36.71-3.53,1.1Z"/>
            <path class="cls-18" d="M30.38,79.18c-.66-2.79-1.09-5.63-1.2-8.5-.11-2.83.09-5.68.7-8.45.6-2.71,1.59-5.35,3.03-7.73,1.04-1.74,2.32-3.32,3.76-4.73-.18.06-.36.11-.54.17-1.24,1.11-2.34,2.39-3.26,3.78-1.64,2.47-2.77,5.27-3.49,8.14-.76,2.99-1.1,6.08-1.12,9.16-.02,3.07.29,6.15.92,9.15.29,1.37.65,2.73,1.09,4.06.42-.36.83-.72,1.24-1.08-.43-1.31-.8-2.63-1.12-3.97Z"/>
          </g>
          <path class="cls-3" d="M22.99,59.65c-.55-.58-1.45-.19-1.99.21-.65.48-1.21,1.09-1.64,1.78-.37.59-.79,1.37-.47,2.07.2.44.64.57,1.09.42.2-.07.38-.18.55-.31.12-.05.25-.11.36-.18.7-.45,1.33-1.12,1.78-1.81.38-.58.91-1.56.31-2.18Z"/>
          <g>
            <path class="cls-42" d="M16.95,66.85s0,0,0-.01c0-.02.01-.03,0,.01Z"/>
            <path class="cls-3" d="M18.03,66.57c-.03-.08-.09-.14-.16-.17-.08-.04-.16-.05-.25-.04-.01,0-.03,0-.04,0-.13.02-.13.03-.23.07-.1.05-.11.05-.21.14-.04.04-.03.02-.12.13-.03.04-.06.09-.08.13-.01.04-.05.13-.05.16,0,.03-.01.11-.01.14,0,.04.01.08.02.12,0,.05-.02.11-.02.16,0,.05.02.09.05.13.02.04.05.07.1.1.13.06.29.03.4-.05.02-.01.03-.03.04-.04.05-.02.1-.04.15-.07.02-.02.05-.03.07-.05.05-.03.09-.07.12-.11.01-.02.04-.05.06-.07.02-.02.03-.06.04-.08,0-.01.03-.05.04-.08,0,0,0,0,0,0,.01-.03.04-.11.05-.15,0,0,0,0,0-.01.01-.05.01-.08.01-.11.02-.09.02-.18-.01-.27Z"/>
          </g>
          <path class="cls-3" d="M16.85,71.48c-.13-.24-.42-.34-.67-.22-.8.36-1.27,1.09-1.5,1.92-.16.58-.21,1.34.09,1.9.03.13.07.26.13.38.09.18.26.26.46.24.74-.08,1.26-.73,1.49-1.39.22-.62.3-1.3.23-1.96-.03-.29-.09-.6-.22-.87Z"/>
          <path class="cls-3" d="M16.54,85.8s0,0,0,0c-.02-.03-.04-.06-.06-.09-.02-.03-.08-.06-.09-.07,0,0,0,0,0,0-.1-.04-.12-.04-.23-.03,0,0,0,0-.01,0-.06,0-.12.03-.18.06-.07.03-.12.06-.17.11-.05.05-.1.1-.13.16-.04.05-.06.11-.07.18v.11c0,.07.02.14.07.19l.05.04s0,0,0,0c0,0,.01.01.02.02,0,0,0,0,0,0,.01,0,.02.01.03.02.05.03.1.04.16.03.06,0,.12,0,.18-.03.04-.02.08-.04.12-.06.08-.05.15-.11.21-.19.02-.04.04-.08.07-.11.03-.07.05-.15.05-.23,0,0,0,0,0,0,0-.04-.01-.07-.02-.11Z"/>
        </g>
      </g>
    </g>
  </g>
</svg>